 http://img153.imageshack.us/img153/1769/thedevilsteardrop2010.jpg

Country.......: USA, Canada
Genre.........: Drama, Crime
Date release..: 08.08.2010 [World]
Director......: Norma Bailey
Writers.......: Jeffery Deaver, Ron Hutchinson
Duration......: 88 min.
More..........: http://www.imdb.com/title/tt1641415

Pilot :
Jeffery Deaver books screenplay. Washington. As a result of a terrorist attack killed dozens of people. Margaret Lucas of the FBI can only count on Parker Kincaid, a researcher documents. Because only trace is a letter of demand ransom. And the author of the letter 'i' instead of dots resembling a footprint makes the sign of falling drops of water. Experts call this "devil's tears."

Cats :
Tom Everett Scott   	 ...  	Parker Kincaid
Natasha Henstridge 	... 	Margaret Lukas
Rena Sofer 	... 	Joan
Gabriel Hogan 	... 	Len Hardy
Jonathan Higgins 	... 	Cage
Jake Goodman 	... 	Robby Kincaid
Rachel Marcus 	... 	Shannon
John MacDonald 	... 	The Digger
Andrew Musselman 	... 	Gilbert Havel
Olivia Jones 	... 	Penny
Joanna Jang 	... 	Janet
Martha Reilly 	... 	Social Worker
Mitchia Armstron 	... 	FBI Guard #1
Shawn Storer 	... 	FBI Guard #2
James Downing 	... 	Ben 

Data Technical :
!!! SAMPLE !!!
Audio.....: English
Subtitles.: None
Format                           : AVI
Format/Info                      : Audio Video Interleave
Format profile                   : OpenDML
File size                        : 695 MiB
Duration                         : 1h 28mn
Overall bit rate                 : 1 100 Kbps
Writing application              : AVI-Mux GUI 1.17.8.3, Feb 16 201019:42:50
Video
ID                               : 0
Format                           : MPEG-4 Visual
Format profile                   : Advanced Simple@L5
Format settings, BVOP            : Yes
Format settings, QPel            : No
Format settings, GMC             : No warppoints
Format settings, Matrix          : Default (H.263)
Muxing mode                      : Packed bitstream
Codec ID                         : XVID
Codec ID/Hint                    : XviD
Duration                         : 1h 28mn
Bit rate                         : 962 Kbps
Width                            : 624 pixels
Height                           : 352 pixels
Display aspect ratio             : 16:9
Frame rate                       : 23.976 fps
Color space                      : YUV
Chroma subsampling               : 4:2:0
Bit depth                        : 8 bits
Scan type                        : Progressive
Bits/(Pixel*Frame)               : 0.183
Stream size                      : 607 MiB (87%)
Writing library                  : XviD 1.2.0.dev49
Audio
ID                               : 1
Format                           : MPEG Audio
Format version                   : Version 1
Format profile                   : Layer 3
Mode                             : Joint stereo
Mode extension                   : MS Stereo
Codec ID                         : 55
Codec ID/Hint                    : MP3
Duration                         : 1h 28mn
Bit rate mode                    : Variable
Bit rate                         : 128 Kbps
Channel(s)                       : 2 channels
Sampling rate                    : 48.0 KHz
Stream size                      : 81.9 MiB (12%)
Alignment                        : Aligned on interleaves
Interleave, duration             : 24 ms (0.58 video frame)
Interleave, preload duration     : 639 ms
Writing library                  : LAME3.90.
Encoding settings                : -m j -V 4 -q 2 -lowpass 17.6 --abr 128-m

Screen : 
http://img707.imageshack.us/img707/7950/thedevilsteardrop2010s1.jpg 
http://img844.imageshack.us/img844/4128/thedevilsteardrop2010s2.jpg 
http://img98.imageshack.us/img98/8426/thedevilsteardrop2010s3.jpg 
http://img689.imageshack.us/img689/2010/thedevilsteardrop2010s4.jpg 
http://img710.imageshack.us/img710/1189/thedevilsteardrop2010s5.jpg